# xmcd
#
# Track frame offsets:
#	150
#	21123
#	32892
#	51725
#	63414
#	78398
#
# Disc length: 1191 seconds
#
# Revision: 1
# Processed by: cddbd v1.5.1PL0 Copyright (c) Steve Scherf et al.
# Submitted via: EasyCDDAExtractor 6.2.0.3
#
DISCID=4e04a506
DTITLE=ABHORRANCE - Pride In Ignorance [Promo 2004]
DYEAR=2004
DGENRE=Thrash Metal
TTITLE0=The Coathanger Method
TTITLE1=Inborn Awakening
TTITLE2=Lone Star Bivouac
TTITLE3=Whiskey and Firearms
TTITLE4=My Nuts. Your Chin... Connection!
TTITLE5=Engineering A Train Wreck
EXTD=
EXTT0=
EXTT1=
EXTT2=
EXTT3=
EXTT4=
EXTT5=
PLAYORDER=
